<?xml version="1.0" encoding="utf-8"?>
<!-- Generator: Adobe Illustrator 19.2.0, SVG Export Plug-In . SVG Version: 6.00 Build 0)  -->
<svg version="1.1" id="Layer_2" xmlns="http://www.w3.org/2000/svg" xmlns:xlink="http://www.w3.org/1999/xlink" x="0px" y="0px"
	 width="307.9px" height="88px" viewBox="0 0 307.9 88" style="enable-background:new 0 0 307.9 88;" xml:space="preserve">
<style type="text/css">
	.st0{fill:#101010;}
	.st1{fill:#8C8C8C;}
	.st2{fill:#1E5096;}
	.st3{fill:#004071;}
	.st4{fill:#235413;}
	.st5{fill:#007DBE;}
	.st6{fill:#F26522;}
	.st7{fill:#66952E;}
	.st8{clip-path:url(#SVGID_2_);fill:url(#SVGID_3_);}
	.st9{clip-path:url(#SVGID_5_);fill:url(#SVGID_6_);}
	.st10{clip-path:url(#SVGID_8_);fill:url(#SVGID_9_);}
	.st11{clip-path:url(#SVGID_11_);fill:#333132;}
	.st12{clip-path:url(#SVGID_13_);fill:#333132;}
	.st13{clip-path:url(#SVGID_15_);fill:#333132;}
	.st14{clip-path:url(#SVGID_17_);fill:#333132;}
	.st15{clip-path:url(#SVGID_19_);fill:#333132;}
	.st16{clip-path:url(#SVGID_21_);fill:#333132;}
	.st17{clip-path:url(#SVGID_23_);fill:#333132;}
	.st18{clip-path:url(#SVGID_25_);fill:#333132;}
	.st19{clip-path:url(#SVGID_27_);fill:#333132;}
	.st20{clip-path:url(#SVGID_29_);fill:#333132;}
	.st21{clip-path:url(#SVGID_31_);fill:#333132;}
	.st22{clip-path:url(#SVGID_33_);fill:#333132;}
</style>
<path id="XMLID_42_" class="st0" d="M227.5,19c-0.4-1.8-1.8-2.7-3.6-2.7c-3,0-4.3,2.5-4.3,5.1c0,2.9,1.3,5.3,4.3,5.3
	c2.2,0,3.5-1.6,3.7-3.7h1.7c-0.3,3.2-2.3,5.1-5.5,5.1c-3.9,0-5.9-2.9-5.9-6.6s2.1-6.7,6-6.7c2.6,0,4.8,1.4,5.2,4.2
	C229.2,19,227.5,19,227.5,19z"/>
<path id="XMLID_97_" class="st0" d="M230.7,18.7h1.4v2l0,0c0.7-1.5,1.7-2.2,3.3-2.1v1.6c-2.4,0-3.3,1.4-3.3,3.8V28h-1.6v-9.3H230.7z
	"/>
<path id="XMLID_99_" class="st0" d="M240.2,18.4c2.9,0,4.5,2.1,4.5,4.8s-1.6,4.8-4.5,4.8s-4.5-2.1-4.5-4.8
	C235.8,20.6,237.3,18.4,240.2,18.4z M240.2,26.8c1.6,0,2.9-1.2,2.9-3.4s-1.3-3.5-2.9-3.5c-1.6,0-2.9,1.2-2.9,3.5
	S238.6,26.8,240.2,26.8z"/>
<path id="XMLID_102_" class="st0" d="M255.1,27.8h-1.6l-1.9-7.3l0,0l-1.9,7.3h-1.6l-2.9-9.2h1.6l2,7.5l0,0l1.9-7.5h1.6l2,7.5l0,0
	l2-7.5h1.6L255.1,27.8z"/>
<path id="XMLID_104_" class="st0" d="M259,18.7h1.4v1.5l0,0c0.7-1.1,1.6-1.6,3-1.6c2.4,0,3.2,1.4,3.2,3.3v6h-1.6v-6.2
	c0-1.1-0.7-1.9-1.9-1.9c-1.8,0-2.7,1.2-2.7,2.9v5.2h-1.6L259,18.7L259,18.7z"/>
<path id="XMLID_106_" class="st0" d="M227.5,38c-0.4-1.8-1.8-2.7-3.6-2.7c-3,0-4.3,2.5-4.3,5.1c0,2.9,1.3,5.3,4.3,5.3
	c2.2,0,3.5-1.6,3.7-3.7h1.7c-0.3,3.2-2.3,5.1-5.5,5.1c-3.9,0-5.9-2.9-5.9-6.6s2.1-6.7,6-6.7c2.6,0,4.8,1.4,5.2,4.2
	C229.2,38,227.5,38,227.5,38z"/>
<path id="XMLID_108_" class="st0" d="M234.7,37.4c2.9,0,4.5,2.1,4.5,4.8c0,2.7-1.6,4.8-4.5,4.8s-4.5-2.1-4.5-4.8
	C230.3,39.5,231.8,37.4,234.7,37.4z M234.7,45.7c1.6,0,2.9-1.2,2.9-3.4s-1.3-3.5-2.9-3.5c-1.6,0-2.9,1.2-2.9,3.5
	S233.1,45.7,234.7,45.7z"/>
<path id="XMLID_111_" class="st0" d="M240.5,37.6h1.4V39l0,0c0.7-1.1,1.6-1.6,2.9-1.6c1.1,0,2.1,0.4,2.5,1.6c0.7-1,1.7-1.6,2.9-1.6
	c1.8,0,3,0.7,3,2.7v6.8h-1.6v-6.1c0-1.1-0.3-2-1.8-2s-2.4,0.9-2.4,2.4v5.7H246v-6c0-1.2-0.4-2-1.7-2c-1.8,0-2.4,1.6-2.4,2.4v5.7
	h-1.6v-9.2H240.5z"/>
<path id="XMLID_113_" class="st0" d="M255.3,37.6h1.4V39l0,0c0.7-1.1,1.6-1.6,2.9-1.6c1.1,0,2.1,0.4,2.5,1.6c0.7-1,1.7-1.6,2.9-1.6
	c1.8,0,3,0.7,3,2.7v6.8h-1.6v-6.1c0-1.1-0.3-2-1.8-2c-1.5,0-2.4,0.9-2.4,2.4v5.7h-1.6v-6c0-1.2-0.4-2-1.7-2c-1.8,0-2.4,1.6-2.4,2.4
	v5.7H255v-9.2H255.3z"/>
<path id="XMLID_115_" class="st0" d="M277.8,43.9c-0.4,2-1.9,3.1-3.9,3.1c-2.9,0-4.3-2-4.4-4.8c0-2.8,1.8-4.8,4.3-4.8
	c3.3,0,4.2,3,4.2,5.2h-6.9c-0.1,1.6,0.8,3,2.9,3c1.2,0,2.1-0.6,2.4-1.8L277.8,43.9L277.8,43.9z M276.4,41.3
	c-0.1-1.5-1.1-2.6-2.6-2.6c-1.6,0-2.5,1.1-2.6,2.6H276.4z"/>
<path id="XMLID_118_" class="st0" d="M279,37.6h1.4v2l0,0c0.7-1.5,1.7-2.2,3.3-2.1v1.6c-2.4,0-3.3,1.4-3.3,3.8v4.1h-1.6v-9.3H279z"
	/>
<path id="XMLID_120_" class="st0" d="M290.8,40.6c-0.2-1.1-1-1.8-2.3-1.8c-2.2,0-2.9,1.7-2.9,3.6c0,1.7,0.7,3.3,2.7,3.3
	c1.5,0,2.4-0.8,2.5-2.2h1.6c-0.3,2.3-1.7,3.6-4.1,3.6c-2.8,0-4.3-2-4.3-4.7c0-2.8,1.4-4.9,4.3-4.9c2.1,0,3.8,1,4,3.2L290.8,40.6
	L290.8,40.6z"/>
<path id="XMLID_122_" class="st0" d="M295.3,36h-1.6v-1.9h1.6V36z M293.8,37.6h1.6v9.2h-1.6V37.6z"/>
<path id="XMLID_125_" class="st0" d="M305.3,46.8c-0.2,0.2-0.7,0.2-1.1,0.2c-0.8,0-1.3-0.4-1.3-1.4c-0.8,1-2,1.4-3.3,1.4
	c-1.6,0-3-0.7-3-2.6c0-2,1.6-2.5,3.1-2.9c1.6-0.3,3.1-0.2,3.1-1.4c0-1.3-1.1-1.6-2-1.6c-1.3,0-2.2,0.4-2.3,1.7H297
	c0.1-2.3,1.8-3.1,3.9-3.1c1.6,0,3.4,0.4,3.4,2.5v4.7c0,0.7,0,1.1,0.5,1.1c0.2,0,0.3,0,0.5-0.1V46.8z M302.9,42
	c-1.1,0.9-4.6,0-4.6,2.3c0,1,0.8,1.4,1.8,1.4c2,0,2.8-1.2,2.8-2V42z"/>
<path id="XMLID_128_" class="st0" d="M306.4,34.1h1.6v12.7h-1.6V34.1z"/>
<path id="XMLID_130_" class="st0" d="M226,56.8c-0.2-1.8-1.4-2.6-3.2-2.6c-1.5,0-2.9,0.5-2.9,2.2c0,3.1,8.2,0.9,8.2,6
	c0,2.7-2.6,3.8-5,3.8c-2.9,0-5.2-1.4-5.2-4.5h1.6c0,2.1,1.8,3,3.7,3c1.6,0,3.2-0.5,3.2-2.3c0-3.5-8.2-1.2-8.2-5.9
	c0-2.5,2.3-3.8,4.6-3.8c2.6,0,4.6,1.2,4.7,4L226,56.8L226,56.8z"/>
<path id="XMLID_132_" class="st0" d="M237.3,62.9c-0.4,2-1.9,3.1-3.9,3.1c-2.9,0-4.3-2-4.4-4.8c0-2.8,1.8-4.8,4.3-4.8
	c3.3,0,4.2,3,4.2,5.2h-6.9c-0.1,1.6,0.8,3,2.9,3c1.2,0,2.1-0.6,2.4-1.8L237.3,62.9L237.3,62.9z M235.8,60.3
	c-0.1-1.5-1.1-2.6-2.6-2.6c-1.6,0-2.5,1.1-2.6,2.6H235.8z"/>
<path id="XMLID_135_" class="st0" d="M238.5,56.6h1.4v2l0,0c0.7-1.5,1.7-2.2,3.3-2.1V58c-2.4,0-3.3,1.4-3.3,3.8v4.1h-1.6v-9.3H238.5
	z"/>
<path id="XMLID_137_" class="st0" d="M248.9,65.8h-1.6l-3.4-9.2h1.7l2.6,7.7l0,0l2.5-7.7h1.6L248.9,65.8z"/>
<path id="XMLID_139_" class="st0" d="M254.8,54.9h-1.6v-1.9h1.6V54.9z M253.3,56.6h1.6v9.2h-1.6V56.6z"/>
<path id="XMLID_142_" class="st0" d="M262.9,59.5c-0.2-1.1-1-1.8-2.3-1.8c-2.2,0-2.9,1.7-2.9,3.6c0,1.7,0.7,3.3,2.7,3.3
	c1.5,0,2.4-0.8,2.5-2.2h1.6c-0.3,2.3-1.7,3.6-4.1,3.6c-2.8,0-4.3-2-4.3-4.7s1.4-4.9,4.3-4.9c2.1,0,3.8,1,4,3.2L262.9,59.5
	L262.9,59.5z"/>
<path id="XMLID_144_" class="st0" d="M273.6,62.9c-0.4,2-1.9,3.1-3.9,3.1c-2.9,0-4.3-2-4.4-4.8c0-2.8,1.8-4.8,4.3-4.8
	c3.3,0,4.2,3,4.2,5.2h-6.9c-0.1,1.6,0.8,3,2.9,3c1.2,0,2.1-0.6,2.4-1.8L273.6,62.9L273.6,62.9z M272.2,60.3
	c-0.1-1.5-1.1-2.6-2.6-2.6c-1.6,0-2.5,1.1-2.6,2.6H272.2z"/>
<path id="XMLID_147_" class="st1" d="M226.8,75.8c0-2.2-1.2-2.9-3.3-2.9c-1.6,0-3.3,0.7-3.3,2.5c0,1.4,1.1,1.8,2.1,2.1l1.4,0.4
	c1.8,0.5,3.4,1.1,3.4,3.3c0,1.2-0.8,3.9-4.9,3.9c-2.9,0-4.9-1.4-4.8-4.4h1.2c-0.2,2.4,1.4,3.4,3.7,3.4c1.6,0,3.6-0.8,3.6-2.7
	c0-1.8-1.7-2.1-3.2-2.5l-1.2-0.4c-1.5-0.4-2.5-1.3-2.5-2.9c0-2.5,2.2-3.6,4.5-3.6c2.6,0,4.7,1.1,4.5,4h-1.1V75.8z"/>
<path id="XMLID_149_" class="st1" d="M235.1,84.7H234l0.3-1.6l0,0c-0.7,1.1-1.9,2-3.3,2c-1.6,0-2.8-0.7-2.8-2.4
	c0-0.2,0.1-0.7,0.2-1.1l1.2-5.9h1.1l-1.3,6c-0.1,0.2-0.2,0.7-0.2,0.9c0,1.2,0.9,1.6,2,1.6c1.6,0,3.1-1.5,3.6-3.8l1-4.7h1.1
	L235.1,84.7z"/>
<path id="XMLID_151_" class="st1" d="M239,75.5h1l-0.3,1.6l0,0c0.8-1.2,1.7-2,3.3-2c2.4,0,3.5,1.6,3.5,3.8c0,2.8-2,6-5,6
	c-1.5,0-2.7-0.6-2.9-2.1l0,0l-1.1,5.2h-1.1L239,75.5z M238.9,81.4c0,1.6,0.9,2.6,2.5,2.6c2.6,0,3.9-2.9,3.9-5.1
	c0-1.6-0.8-2.8-2.4-2.8C240.3,76.2,238.9,79.1,238.9,81.4z"/>
<path id="XMLID_154_" class="st1" d="M248.7,75.5h1l-0.3,1.6l0,0c0.8-1.2,1.7-2,3.3-2c2.4,0,3.5,1.6,3.5,3.8c0,2.8-2,6-5,6
	c-1.5,0-2.7-0.6-2.9-2.1l0,0l-1.1,5.2H246L248.7,75.5z M248.7,81.4c0,1.6,0.9,2.6,2.5,2.6c2.6,0,3.9-2.9,3.9-5.1
	c0-1.6-0.8-2.8-2.4-2.8C250.1,76.2,248.7,79.1,248.7,81.4z"/>
<path id="XMLID_157_" class="st1" d="M259.2,72h1.1l-2.8,12.7h-1.1L259.2,72z"/>
<path id="XMLID_159_" class="st1" d="M261.2,75.5h1.1l-2,9.1h-1.1L261.2,75.5z M262,72h1.1l-0.4,1.8h-1.1L262,72z"/>
<path id="XMLID_162_" class="st1" d="M263.8,80.4c0,0.2-0.1,0.4-0.1,0.7c0,1.6,0.8,2.9,2.7,2.9c1.5,0,2.6-0.9,3-2.3h1.1
	c-0.7,2-2,3.2-4.2,3.2c-2.4,0-3.8-1.5-3.8-3.9c0-2.9,1.8-5.8,5-5.8c2.2,0,3.5,1.5,3.5,3.6c0,0.5,0,1.1-0.1,1.6H263.8z M269.9,79.5
	c0-0.2,0-0.5,0-0.7c0-1.6-1-2.5-2.5-2.5c-1.8,0-3.1,1.6-3.5,3.3H269.9z"/>
<path id="XMLID_165_" class="st1" d="M272.9,75.5h1l-0.5,2.1l0,0c0.7-1.3,1.7-2.2,3.3-2.2h0.3c0.1,0,0.2,0,0.3,0l-0.2,1.1
	c-0.2,0-0.4,0-0.7,0c-2,0.1-3,1.6-3.4,3.3l-1.1,4.8h-1.1L272.9,75.5z"/>
<rect id="XMLID_43_" x="209.1" y="14.9" class="st2" width="1" height="69.9"/>
<g>
	<polygon class="st3" points="0.1,40.7 0.1,71.2 10.2,81.4 20.4,81.4 10.2,40.7 	"/>
	<polygon class="st4" points="50.9,40.7 40.7,81.4 50.9,81.4 61.1,71.2 61.1,40.7 	"/>
	<rect x="2.1" y="25.4" transform="matrix(0.7072 -0.707 0.707 0.7072 -19.4372 14.0198)" class="st5" width="10.2" height="10.2"/>
	<rect x="25.5" y="2.1" transform="matrix(0.7071 -0.7071 0.7071 0.7071 3.8534 23.715)" class="st6" width="10.2" height="10.2"/>
	
		<rect x="48.7" y="25.4" transform="matrix(0.7071 -0.7071 0.7071 0.7071 -5.8303 46.9882)" class="st7" width="10.2" height="10.2"/>
	<g>
		<g>
			<defs>
				<polygon id="SVGID_1_" points="15.3,20.3 25.5,81.4 35.7,81.4 45.8,20.3 				"/>
			</defs>
			<clipPath id="SVGID_2_">
				<use xlink:href="#SVGID_1_"  style="overflow:visible;"/>
			</clipPath>
			
				<linearGradient id="SVGID_3_" gradientUnits="userSpaceOnUse" x1="-110.4032" y1="313.7363" x2="-109.8945" y2="313.7363" gradientTransform="matrix(0 -120 -120 0 37678.9258 -13167)">
				<stop  offset="0" style="stop-color:#73200F"/>
				<stop  offset="1" style="stop-color:#A0200F"/>
			</linearGradient>
			<rect x="15.3" y="20.3" class="st8" width="30.5" height="61"/>
		</g>
	</g>
	<g>
		<g>
			<defs>
				<polygon id="SVGID_4_" points="0.1,40.7 0.1,66.1 10.2,50.9 30.6,55.9 10.2,40.7 				"/>
			</defs>
			<clipPath id="SVGID_5_">
				<use xlink:href="#SVGID_4_"  style="overflow:visible;"/>
			</clipPath>
			
				<linearGradient id="SVGID_6_" gradientUnits="userSpaceOnUse" x1="-106.2007" y1="309.1333" x2="-105.6921" y2="309.1333" gradientTransform="matrix(60 0 0 -60 6372.0938 18601.4004)">
				<stop  offset="0" style="stop-color:#007ABF"/>
				<stop  offset="1" style="stop-color:#5DACE3"/>
			</linearGradient>
			<rect x="0.1" y="40.7" class="st9" width="30.5" height="25.4"/>
		</g>
	</g>
	<g>
		<g>
			<defs>
				<polygon id="SVGID_7_" points="61.1,66.1 61.1,40.7 50.9,55.9 30.6,50.9 50.9,66.1 				"/>
			</defs>
			<clipPath id="SVGID_8_">
				<use xlink:href="#SVGID_7_"  style="overflow:visible;"/>
			</clipPath>
			
				<linearGradient id="SVGID_9_" gradientUnits="userSpaceOnUse" x1="-106.6921" y1="309.1333" x2="-106.1835" y2="309.1333" gradientTransform="matrix(60 0 0 -60 6432.0938 18601.4004)">
				<stop  offset="0" style="stop-color:#B6C779"/>
				<stop  offset="1" style="stop-color:#759500"/>
			</linearGradient>
			<rect x="30.6" y="40.7" class="st10" width="30.5" height="25.4"/>
		</g>
	</g>
	<polygon class="st6" points="15.3,20.3 30.6,20.3 45.8,20.3 30.6,30.5 30.6,45.8 	"/>
	<g>
		<g>
			<defs>
				<rect id="SVGID_10_" width="187.3" height="81.6"/>
			</defs>
			<clipPath id="SVGID_11_">
				<use xlink:href="#SVGID_10_"  style="overflow:visible;"/>
			</clipPath>
			<path class="st11" d="M93.1,38.8c0,1.1-0.1,2.1-0.3,2.9c-0.2,0.9-0.6,1.6-1,2.3c-0.5,0.6-1.1,1.1-1.8,1.5
				c-0.8,0.4-1.7,0.5-2.8,0.5c-1,0-1.9-0.2-2.7-0.5c-0.8-0.3-1.4-0.7-1.9-1.2c-0.5-0.5-0.9-1.1-1.1-1.8c-0.3-0.7-0.4-1.5-0.4-2.3
				l2.9-0.6c0,0.5,0.1,1,0.2,1.4s0.3,0.8,0.5,1.2c0.3,0.4,0.6,0.6,1,0.8c0.4,0.2,0.9,0.3,1.5,0.3c0.7,0,1.3-0.1,1.7-0.4
				c0.4-0.3,0.8-0.6,1-1c0.2-0.4,0.4-0.9,0.4-1.4c0.1-0.6,0.1-1.1,0.1-1.7c0-0.8-0.1-1.4-0.1-1.8c-0.1-0.5-0.3-0.9-0.5-1.2
				c-0.3-0.4-0.6-0.7-1.1-0.9c-0.5-0.3-1.1-0.6-1.8-0.9c-1.2-0.5-2.1-1-2.9-1.6c-0.7-0.5-1.3-1.1-1.7-1.6c-0.4-0.6-0.7-1.2-0.8-1.8
				c-0.1-0.7-0.2-1.4-0.2-2.1c0-1,0.1-1.9,0.4-2.7c0.3-0.8,0.6-1.5,1.1-2.1c0.5-0.6,1.1-1.1,1.9-1.4s1.6-0.5,2.6-0.5
				c1.1,0,2,0.2,2.8,0.5c0.8,0.4,1.3,0.8,1.8,1.3s0.8,1.2,1,1.8c0.2,0.7,0.3,1.3,0.3,1.9l-2.9,0.7c0-1.2-0.3-2-0.7-2.6
				c-0.5-0.6-1.3-0.9-2.4-0.9c-0.6,0-1.1,0.1-1.5,0.4c-0.4,0.3-0.7,0.6-0.9,0.9c-0.2,0.4-0.4,0.8-0.5,1.3c-0.1,0.5-0.1,0.9-0.1,1.4
				c0,0.6,0.1,1,0.1,1.4s0.2,0.8,0.5,1.1c0.3,0.4,0.7,0.7,1.2,1.1c0.5,0.4,1.3,0.7,2.2,1.1c1.1,0.5,2,0.9,2.6,1.4
				c0.7,0.5,1.2,1,1.5,1.6c0.4,0.6,0.6,1.2,0.7,2C93.1,37.1,93.1,37.9,93.1,38.8"/>
		</g>
		<g>
			<defs>
				<rect id="SVGID_12_" width="187.3" height="81.6"/>
			</defs>
			<clipPath id="SVGID_13_">
				<use xlink:href="#SVGID_12_"  style="overflow:visible;"/>
			</clipPath>
			<path class="st12" d="M108.9,38.9c0,1.7-0.3,3.1-0.7,4.1l2,1.6l-1.4,1.8l-2-1.6c-1,0.8-2.2,1.1-3.8,1.1c-2.1,0-3.6-0.6-4.5-1.7
				s-1.4-2.6-1.4-4.5V27.2c0-0.9,0.1-1.8,0.3-2.6c0.2-0.9,0.5-1.6,0.9-2.3c0.4-0.7,1-1.2,1.8-1.6c0.8-0.4,1.7-0.6,2.9-0.6
				c1.3,0,2.3,0.2,3.1,0.5c0.8,0.4,1.4,0.9,1.8,1.5c0.4,0.6,0.7,1.4,0.8,2.2c0.2,0.9,0.2,1.8,0.2,2.8v11.9H108.9z M106,26.7
				c0-0.5-0.1-0.9-0.1-1.4c-0.1-0.5-0.2-0.9-0.4-1.3c-0.2-0.4-0.5-0.7-0.9-1c-0.4-0.3-0.9-0.4-1.6-0.4c-0.7,0-1.3,0.2-1.7,0.5
				c-0.4,0.4-0.7,0.8-0.9,1.3c-0.2,0.5-0.3,1-0.4,1.5c-0.1,0.6-0.1,1-0.1,1.4v12.3c0,0.4,0.1,0.8,0.1,1.2c0.1,0.4,0.2,0.8,0.5,1.2
				c0.2,0.4,0.5,0.7,0.9,0.9c0.4,0.3,0.9,0.4,1.5,0.4s1.2-0.1,1.5-0.3l-2.1-1.8l1.4-1.7l2,1.6c0.2-0.6,0.2-1.2,0.2-1.8L106,26.7
				L106,26.7z"/>
		</g>
		<g>
			<defs>
				<rect id="SVGID_14_" width="187.3" height="81.6"/>
			</defs>
			<clipPath id="SVGID_15_">
				<use xlink:href="#SVGID_14_"  style="overflow:visible;"/>
			</clipPath>
			<path class="st13" d="M125.1,20.3V39c0,2.3-0.5,4-1.3,5.2s-2.4,1.8-4.5,1.8c-2.1,0-3.6-0.6-4.5-1.7c-0.9-1.2-1.4-2.6-1.4-4.5
				V20.3h2.9v19.4c0,0.4,0.1,0.8,0.1,1.2c0.1,0.4,0.2,0.8,0.5,1.2c0.2,0.4,0.5,0.7,0.9,0.9c0.4,0.3,0.9,0.4,1.5,0.4s1.1-0.1,1.5-0.4
				c0.4-0.3,0.7-0.6,0.9-0.9c0.2-0.4,0.4-0.8,0.5-1.3c0.1-0.5,0.2-1,0.2-1.5v-19H125.1z"/>
		</g>
		<g>
			<defs>
				<rect id="SVGID_16_" width="187.3" height="81.6"/>
			</defs>
			<clipPath id="SVGID_17_">
				<use xlink:href="#SVGID_16_"  style="overflow:visible;"/>
			</clipPath>
			<path class="st14" d="M139.5,45.8l-1.2-5.7h-5.7l-1.1,5.7h-2.8l5.4-25.5h2.7l5.5,25.5H139.5z M135.4,25.5l-1.1,6l-1.2,6h4.7
				l-1.2-6.1l-1-5.8L135.4,25.5"/>
		</g>
		<g>
			<defs>
				<rect id="SVGID_18_" width="187.3" height="81.6"/>
			</defs>
			<clipPath id="SVGID_19_">
				<use xlink:href="#SVGID_18_"  style="overflow:visible;"/>
			</clipPath>
			<path class="st15" d="M152.1,20.3c1.5,0,2.7,0.3,3.6,0.8c0.9,0.5,1.5,1.4,1.8,2.6c0.3,1,0.4,2.3,0.4,3.8V33v5.3
				c0,1.5-0.2,2.7-0.5,3.7c-0.5,1.4-1.2,2.4-2.2,2.9c-1,0.6-2.1,0.8-3.5,0.8h-5.6V20.3H152.1z M155,26.7c0-1.2-0.3-2-0.7-2.7
				c-0.5-0.7-1.4-1-2.6-1h-2.6v20.1h2.6c1.2,0,2-0.3,2.5-1c0.5-0.7,0.8-1.6,0.8-2.8V26.7z"/>
		</g>
		<g>
			<defs>
				<rect id="SVGID_20_" width="187.3" height="81.6"/>
			</defs>
			<clipPath id="SVGID_21_">
				<use xlink:href="#SVGID_20_"  style="overflow:visible;"/>
			</clipPath>
			<rect x="81.5" y="55.9" class="st16" width="2.9" height="25.5"/>
		</g>
		<g>
			<defs>
				<rect id="SVGID_22_" width="187.3" height="81.6"/>
			</defs>
			<clipPath id="SVGID_23_">
				<use xlink:href="#SVGID_22_"  style="overflow:visible;"/>
			</clipPath>
			<polyline class="st17" points="91.9,63.9 91.9,81.4 89,81.4 89,55.9 91.7,55.9 97,68.8 98.8,73.4 98.9,73.4 98.9,55.8 
				101.8,55.8 101.8,81.4 99.1,81.4 93.8,68.6 92,63.9 91.9,63.9 			"/>
		</g>
		<g>
			<defs>
				<rect id="SVGID_24_" width="187.3" height="81.6"/>
			</defs>
			<clipPath id="SVGID_25_">
				<use xlink:href="#SVGID_24_"  style="overflow:visible;"/>
			</clipPath>
			<polygon class="st18" points="120.4,58.5 120.4,81.4 117.5,81.4 117.5,58.5 113.2,58.5 113.2,55.8 124.7,55.8 124.7,58.5 			"/>
		</g>
		<g>
			<defs>
				<rect id="SVGID_26_" width="187.3" height="81.6"/>
			</defs>
			<clipPath id="SVGID_27_">
				<use xlink:href="#SVGID_26_"  style="overflow:visible;"/>
			</clipPath>
			<path class="st19" d="M139.7,74.5c0,2.3-0.5,4-1.3,5.2c-0.9,1.2-2.4,1.8-4.6,1.8c-2.1,0-3.6-0.6-4.5-1.7
				c-0.9-1.2-1.3-2.6-1.3-4.5V62.8c0-0.9,0.1-1.8,0.3-2.6c0.2-0.9,0.5-1.6,0.9-2.3c0.4-0.7,1-1.2,1.8-1.6c0.8-0.4,1.7-0.6,2.9-0.6
				c1.3,0,2.3,0.2,3.1,0.5s1.4,0.9,1.8,1.5c0.4,0.6,0.7,1.4,0.8,2.2c0.2,0.9,0.2,1.8,0.2,2.8L139.7,74.5L139.7,74.5z M136.8,62.3
				c0-0.5-0.1-0.9-0.1-1.4c-0.1-0.5-0.2-0.9-0.4-1.3c-0.2-0.4-0.5-0.7-0.9-1c-0.4-0.3-0.9-0.4-1.6-0.4c-0.7,0-1.3,0.2-1.7,0.5
				c-0.4,0.4-0.7,0.8-0.9,1.3c-0.2,0.5-0.3,1-0.4,1.5c-0.1,0.6-0.1,1-0.1,1.4v12.3c0,0.4,0.1,0.8,0.1,1.2c0.1,0.4,0.2,0.8,0.5,1.2
				c0.2,0.4,0.5,0.7,0.9,0.9c0.4,0.3,0.9,0.4,1.5,0.4c0.6,0,1.1-0.1,1.5-0.4c0.4-0.3,0.7-0.6,0.9-0.9c0.2-0.4,0.4-0.8,0.5-1.3
				c0.1-0.5,0.2-1,0.2-1.5L136.8,62.3L136.8,62.3z"/>
		</g>
		<g>
			<defs>
				<rect id="SVGID_28_" width="187.3" height="81.6"/>
			</defs>
			<clipPath id="SVGID_29_">
				<use xlink:href="#SVGID_28_"  style="overflow:visible;"/>
			</clipPath>
			<path class="st20" d="M155.8,55.9v18.6c0,2.3-0.5,4-1.3,5.2c-0.9,1.2-2.4,1.8-4.5,1.8c-2.1,0-3.6-0.6-4.5-1.7
				c-0.9-1.2-1.4-2.6-1.4-4.5V55.9h2.9v19.4c0,0.4,0.1,0.8,0.1,1.2c0.1,0.4,0.2,0.8,0.5,1.2c0.2,0.4,0.5,0.7,0.9,0.9
				c0.4,0.3,0.9,0.4,1.5,0.4c0.6,0,1.1-0.1,1.5-0.4c0.4-0.3,0.7-0.6,0.9-0.9c0.2-0.4,0.4-0.8,0.5-1.3c0.1-0.5,0.2-1,0.2-1.5v-19
				H155.8z"/>
		</g>
		<g>
			<defs>
				<rect id="SVGID_30_" width="187.3" height="81.6"/>
			</defs>
			<clipPath id="SVGID_31_">
				<use xlink:href="#SVGID_30_"  style="overflow:visible;"/>
			</clipPath>
			<path class="st21" d="M165.9,55.7c2,0,3.4,0.6,4.3,1.6s1.3,2.5,1.3,4.2l-2.9,0.5c0-1.1-0.2-2-0.6-2.7c-0.4-0.7-1.2-1-2.2-1
				c-0.6,0-1.1,0.2-1.4,0.4s-0.7,0.6-0.9,1c-0.2,0.4-0.4,0.9-0.4,1.3c-0.1,0.5-0.1,1-0.1,1.4v12.9c0,0.4,0.1,0.8,0.1,1.2
				c0.1,0.4,0.2,0.8,0.4,1.2c0.2,0.4,0.5,0.7,0.9,0.9c0.4,0.3,0.8,0.4,1.4,0.4c1,0,1.7-0.3,2.1-0.9c0.5-0.6,0.7-1.5,0.7-2.8l2.9,0.5
				c-0.1,1.8-0.6,3.3-1.5,4.3s-2.3,1.5-4.2,1.5c-1.9,0-3.4-0.6-4.3-1.6c-1-1.1-1.4-2.6-1.4-4.5V62.9c0-0.9,0.1-1.8,0.3-2.6
				c0.2-0.9,0.5-1.6,0.9-2.3s1-1.2,1.8-1.6C163.8,55.9,164.7,55.7,165.9,55.7"/>
		</g>
		<g>
			<defs>
				<rect id="SVGID_32_" width="187.3" height="81.6"/>
			</defs>
			<clipPath id="SVGID_33_">
				<use xlink:href="#SVGID_32_"  style="overflow:visible;"/>
			</clipPath>
			<polygon class="st22" points="184.4,81.4 184.4,69.6 178.5,69.6 178.5,81.4 175.6,81.4 175.6,55.9 178.5,55.9 178.5,67.1 
				184.4,67.1 184.4,55.9 187.3,55.9 187.3,81.4 			"/>
		</g>
	</g>
</g>
</svg>
