<?xml version="1.0" encoding="utf-8"?>
<!-- Generator: Adobe Illustrator 19.2.0, SVG Export Plug-In . SVG Version: 6.00 Build 0)  -->
<svg version="1.1" id="Layer_1" xmlns="http://www.w3.org/2000/svg" xmlns:xlink="http://www.w3.org/1999/xlink" x="0px" y="0px"
	 width="110.1px" height="48px" viewBox="0 0 110.1 48" style="enable-background:new 0 0 110.1 48;" xml:space="preserve">
<style type="text/css">
	.st0{fill:#004071;}
	.st1{fill:#235413;}
	.st2{fill:#007DBE;}
	.st3{fill:#F26522;}
	.st4{fill:#66952E;}
	.st5{clip-path:url(#SVGID_2_);fill:url(#SVGID_3_);}
	.st6{clip-path:url(#SVGID_5_);fill:url(#SVGID_6_);}
	.st7{clip-path:url(#SVGID_8_);fill:url(#SVGID_9_);}
	.st8{clip-path:url(#SVGID_11_);fill:#333132;}
	.st9{clip-path:url(#SVGID_13_);fill:#333132;}
	.st10{clip-path:url(#SVGID_15_);fill:#333132;}
	.st11{clip-path:url(#SVGID_17_);fill:#333132;}
	.st12{clip-path:url(#SVGID_19_);fill:#333132;}
	.st13{clip-path:url(#SVGID_21_);fill:#333132;}
	.st14{clip-path:url(#SVGID_23_);fill:#333132;}
	.st15{clip-path:url(#SVGID_25_);fill:#333132;}
	.st16{clip-path:url(#SVGID_27_);fill:#333132;}
	.st17{clip-path:url(#SVGID_29_);fill:#333132;}
	.st18{clip-path:url(#SVGID_31_);fill:#333132;}
	.st19{clip-path:url(#SVGID_33_);fill:#333132;}
</style>
<polygon class="st0" points="0,23.9 0,41.9 6,47.9 12,47.9 6,23.9 "/>
<polygon class="st1" points="29.9,23.9 24,47.9 29.9,47.9 35.9,41.9 35.9,23.9 "/>
<rect x="1.2" y="14.9" transform="matrix(0.7072 -0.707 0.707 0.7072 -11.4291 8.2436)" class="st2" width="6" height="6"/>
<rect x="15" y="1.2" transform="matrix(0.7071 -0.7071 0.7071 0.7071 2.2658 13.9444)" class="st3" width="6" height="6"/>
<rect x="28.6" y="15" transform="matrix(0.7071 -0.7071 0.7071 0.7071 -3.4282 27.6291)" class="st4" width="6" height="6"/>
<g>
	<g>
		<defs>
			<polygon id="SVGID_1_" points="9,12 15,47.9 21,47.9 26.9,12 			"/>
		</defs>
		<clipPath id="SVGID_2_">
			<use xlink:href="#SVGID_1_"  style="overflow:visible;"/>
		</clipPath>
		
			<linearGradient id="SVGID_3_" gradientUnits="userSpaceOnUse" x1="-114.9071" y1="339.7996" x2="-114.608" y2="339.7996" gradientTransform="matrix(0 -120 -120 0 40793.9258 -13741)">
			<stop  offset="0" style="stop-color:#73200F"/>
			<stop  offset="1" style="stop-color:#A0200F"/>
		</linearGradient>
		<rect x="9" y="12" class="st5" width="17.9" height="35.9"/>
	</g>
</g>
<g>
	<g>
		<defs>
			<polygon id="SVGID_4_" points="0,23.9 0,38.9 6,29.9 18,32.9 6,23.9 			"/>
		</defs>
		<clipPath id="SVGID_5_">
			<use xlink:href="#SVGID_4_"  style="overflow:visible;"/>
		</clipPath>
		
			<linearGradient id="SVGID_6_" gradientUnits="userSpaceOnUse" x1="-111.1177" y1="335.9333" x2="-110.8187" y2="335.9333" gradientTransform="matrix(60 0 0 -60 6667.0938 20187.4004)">
			<stop  offset="0" style="stop-color:#007ABF"/>
			<stop  offset="1" style="stop-color:#5DACE3"/>
		</linearGradient>
		<rect x="0" y="23.9" class="st6" width="17.9" height="15"/>
	</g>
</g>
<g>
	<g>
		<defs>
			<polygon id="SVGID_7_" points="35.9,38.9 35.9,23.9 29.9,32.9 18,29.9 29.9,38.9 			"/>
		</defs>
		<clipPath id="SVGID_8_">
			<use xlink:href="#SVGID_7_"  style="overflow:visible;"/>
		</clipPath>
		
			<linearGradient id="SVGID_9_" gradientUnits="userSpaceOnUse" x1="-111.8187" y1="335.9333" x2="-111.5196" y2="335.9333" gradientTransform="matrix(60 0 0 -60 6727.0938 20187.4004)">
			<stop  offset="0" style="stop-color:#B6C779"/>
			<stop  offset="1" style="stop-color:#759500"/>
		</linearGradient>
		<rect x="18" y="23.9" class="st7" width="17.9" height="15"/>
	</g>
</g>
<polygon class="st3" points="9,12 18,12 26.9,12 18,17.9 18,26.9 "/>
<g>
	<g>
		<defs>
			<rect id="SVGID_10_" width="110.1" height="48"/>
		</defs>
		<clipPath id="SVGID_11_">
			<use xlink:href="#SVGID_10_"  style="overflow:visible;"/>
		</clipPath>
		<path class="st8" d="M54.8,22.8c0,0.7-0.1,1.2-0.2,1.7c-0.1,0.5-0.3,1-0.6,1.3c-0.3,0.4-0.7,0.7-1.1,0.9c-0.4,0.2-1,0.3-1.7,0.3
			c-0.6,0-1.1-0.1-1.6-0.3c-0.4-0.2-0.8-0.4-1.1-0.7c-0.3-0.3-0.5-0.7-0.6-1.1c-0.1-0.4-0.2-0.9-0.2-1.3l1.7-0.4
			c0,0.3,0,0.6,0.1,0.8c0.1,0.2,0.1,0.5,0.3,0.7c0.1,0.2,0.3,0.4,0.6,0.5c0.2,0.1,0.5,0.2,0.9,0.2c0.4,0,0.8-0.1,1-0.2
			c0.2-0.1,0.4-0.3,0.6-0.6c0.1-0.2,0.2-0.5,0.2-0.8c0-0.3,0-0.7,0-1c0-0.4,0-0.8-0.1-1.1c0-0.3-0.1-0.5-0.3-0.7
			c-0.1-0.2-0.4-0.4-0.6-0.5c-0.3-0.1-0.6-0.3-1.1-0.5c-0.7-0.3-1.3-0.6-1.7-0.9c-0.4-0.3-0.7-0.6-1-1S48,17.4,47.9,17
			s-0.1-0.8-0.1-1.3c0-0.6,0.1-1.1,0.2-1.6s0.4-0.9,0.7-1.3c0.3-0.4,0.7-0.6,1.1-0.8c0.4-0.2,1-0.3,1.6-0.3c0.7,0,1.2,0.1,1.6,0.3
			c0.4,0.2,0.8,0.4,1,0.8c0.3,0.3,0.4,0.7,0.6,1.1c0.1,0.4,0.1,0.8,0.1,1.1L53,15.6c0-0.7-0.1-1.2-0.4-1.6c-0.3-0.4-0.7-0.5-1.4-0.5
			c-0.4,0-0.7,0.1-0.9,0.2c-0.2,0.1-0.4,0.3-0.5,0.5c-0.1,0.2-0.2,0.5-0.3,0.7c0,0.3-0.1,0.5-0.1,0.8c0,0.3,0,0.6,0.1,0.8
			s0.1,0.4,0.3,0.7c0.1,0.2,0.4,0.4,0.7,0.6c0.3,0.2,0.7,0.4,1.3,0.6c0.7,0.3,1.2,0.5,1.6,0.8s0.7,0.6,0.9,0.9
			c0.2,0.4,0.3,0.7,0.4,1.2C54.7,21.8,54.8,22.3,54.8,22.8"/>
	</g>
	<g>
		<defs>
			<rect id="SVGID_12_" width="110.1" height="48"/>
		</defs>
		<clipPath id="SVGID_13_">
			<use xlink:href="#SVGID_12_"  style="overflow:visible;"/>
		</clipPath>
		<path class="st9" d="M64.1,22.9c0,1-0.1,1.8-0.4,2.4l1.2,1l-0.8,1l-1.2-0.9c-0.6,0.4-1.3,0.7-2.2,0.7c-1.2,0-2.1-0.3-2.7-1
			c-0.5-0.7-0.8-1.6-0.8-2.7V16c0-0.5,0.1-1,0.1-1.6c0.1-0.5,0.3-1,0.5-1.3c0.2-0.4,0.6-0.7,1-1s1-0.4,1.7-0.4
			c0.7,0,1.3,0.1,1.8,0.3c0.4,0.2,0.8,0.5,1,0.9s0.4,0.8,0.5,1.3c0.1,0.5,0.1,1,0.1,1.6L64.1,22.9L64.1,22.9z M62.4,15.7
			c0-0.3,0-0.5-0.1-0.8c0-0.3-0.1-0.5-0.2-0.7c-0.1-0.2-0.3-0.4-0.5-0.6c-0.2-0.1-0.5-0.2-0.9-0.2c-0.4,0-0.7,0.1-1,0.3
			c-0.2,0.2-0.4,0.4-0.5,0.7s-0.2,0.6-0.2,0.9c0,0.3,0,0.6,0,0.8v7.2c0,0.2,0,0.4,0.1,0.7c0,0.2,0.1,0.5,0.3,0.7
			c0.1,0.2,0.3,0.4,0.5,0.5c0.2,0.1,0.5,0.2,0.9,0.2c0.4,0,0.7-0.1,0.9-0.2l-1.3-1l0.8-1l1.2,1c0.1-0.3,0.1-0.7,0.1-1.1L62.4,15.7
			L62.4,15.7z"/>
	</g>
	<g>
		<defs>
			<rect id="SVGID_14_" width="110.1" height="48"/>
		</defs>
		<clipPath id="SVGID_15_">
			<use xlink:href="#SVGID_14_"  style="overflow:visible;"/>
		</clipPath>
		<path class="st10" d="M73.6,12v10.9c0,1.3-0.3,2.4-0.8,3.1c-0.5,0.7-1.4,1.1-2.7,1.1c-1.2,0-2.1-0.3-2.7-1
			c-0.5-0.7-0.8-1.6-0.8-2.7V12h1.7v11.4c0,0.2,0,0.4,0.1,0.7s0.1,0.5,0.3,0.7c0.1,0.2,0.3,0.4,0.5,0.5c0.2,0.1,0.5,0.2,0.9,0.2
			c0.4,0,0.7-0.1,0.9-0.2c0.2-0.1,0.4-0.3,0.5-0.5c0.1-0.2,0.2-0.5,0.3-0.8c0.1-0.3,0.1-0.6,0.1-0.9V12H73.6z"/>
	</g>
	<g>
		<defs>
			<rect id="SVGID_16_" width="110.1" height="48"/>
		</defs>
		<clipPath id="SVGID_17_">
			<use xlink:href="#SVGID_16_"  style="overflow:visible;"/>
		</clipPath>
		<path class="st11" d="M82,26.9l-0.7-3.3H78l-0.6,3.3h-1.6l3.2-15h1.6l3.2,15H82z M79.6,15L79,18.5L78.3,22H81l-0.7-3.6L79.6,15
			L79.6,15"/>
	</g>
	<g>
		<defs>
			<rect id="SVGID_18_" width="110.1" height="48"/>
		</defs>
		<clipPath id="SVGID_19_">
			<use xlink:href="#SVGID_18_"  style="overflow:visible;"/>
		</clipPath>
		<path class="st12" d="M89.4,11.9c0.9,0,1.6,0.1,2.1,0.4c0.5,0.3,0.9,0.8,1.1,1.6c0.1,0.6,0.2,1.3,0.2,2.2v3.2v3.1
			c0,0.9-0.1,1.6-0.3,2.2c-0.3,0.8-0.7,1.4-1.3,1.7c-0.6,0.3-1.3,0.5-2,0.5H86v-15H89.4z M91.2,15.7c0-0.7-0.1-1.2-0.4-1.6
			c-0.3-0.4-0.8-0.6-1.5-0.6h-1.5v11.8h1.5c0.7,0,1.2-0.2,1.5-0.6c0.3-0.4,0.4-0.9,0.4-1.6V15.7z"/>
	</g>
	<g>
		<defs>
			<rect id="SVGID_20_" width="110.1" height="48"/>
		</defs>
		<clipPath id="SVGID_21_">
			<use xlink:href="#SVGID_20_"  style="overflow:visible;"/>
		</clipPath>
		<rect x="47.9" y="32.9" class="st13" width="1.7" height="15"/>
	</g>
	<g>
		<defs>
			<rect id="SVGID_22_" width="110.1" height="48"/>
		</defs>
		<clipPath id="SVGID_23_">
			<use xlink:href="#SVGID_22_"  style="overflow:visible;"/>
		</clipPath>
		<polyline class="st14" points="54,37.6 54,47.9 52.3,47.9 52.3,32.9 53.9,32.9 57,40.5 58.1,43.2 58.2,43.2 58.2,32.8 59.9,32.8 
			59.9,47.9 58.3,47.9 55.2,40.3 54.1,37.6 54,37.6 		"/>
	</g>
	<g>
		<defs>
			<rect id="SVGID_24_" width="110.1" height="48"/>
		</defs>
		<clipPath id="SVGID_25_">
			<use xlink:href="#SVGID_24_"  style="overflow:visible;"/>
		</clipPath>
		<polygon class="st15" points="70.8,34.4 70.8,47.9 69.1,47.9 69.1,34.4 66.5,34.4 66.5,32.8 73.3,32.8 73.3,34.4 		"/>
	</g>
	<g>
		<defs>
			<rect id="SVGID_26_" width="110.1" height="48"/>
		</defs>
		<clipPath id="SVGID_27_">
			<use xlink:href="#SVGID_26_"  style="overflow:visible;"/>
		</clipPath>
		<path class="st16" d="M82.1,43.8c0,1.3-0.3,2.4-0.8,3.1c-0.5,0.7-1.4,1.1-2.7,1.1c-1.2,0-2.1-0.3-2.6-1c-0.5-0.7-0.8-1.6-0.8-2.7
			v-7.4c0-0.5,0.1-1,0.1-1.6c0.1-0.5,0.3-1,0.5-1.3c0.2-0.4,0.6-0.7,1-1c0.4-0.2,1-0.4,1.7-0.4c0.7,0,1.3,0.1,1.8,0.3
			c0.4,0.2,0.8,0.5,1,0.9c0.2,0.4,0.4,0.8,0.5,1.3c0.1,0.5,0.1,1,0.1,1.6L82.1,43.8L82.1,43.8z M80.4,36.6c0-0.3,0-0.5-0.1-0.8
			c0-0.3-0.1-0.5-0.2-0.7c-0.1-0.2-0.3-0.4-0.5-0.6c-0.2-0.1-0.5-0.2-0.9-0.2c-0.4,0-0.7,0.1-1,0.3c-0.2,0.2-0.4,0.4-0.5,0.7
			S77,35.9,77,36.2c0,0.3,0,0.6,0,0.8v7.2c0,0.2,0,0.4,0.1,0.7c0,0.2,0.1,0.5,0.3,0.7c0.1,0.2,0.3,0.4,0.5,0.5
			c0.2,0.1,0.5,0.2,0.9,0.2c0.4,0,0.7-0.1,0.9-0.2s0.4-0.3,0.5-0.5c0.1-0.2,0.2-0.5,0.3-0.7c0.1-0.3,0.1-0.6,0.1-0.9L80.4,36.6
			L80.4,36.6z"/>
	</g>
	<g>
		<defs>
			<rect id="SVGID_28_" width="110.1" height="48"/>
		</defs>
		<clipPath id="SVGID_29_">
			<use xlink:href="#SVGID_28_"  style="overflow:visible;"/>
		</clipPath>
		<path class="st17" d="M91.6,32.9v10.9c0,1.3-0.3,2.4-0.8,3.1c-0.5,0.7-1.4,1.1-2.7,1.1c-1.2,0-2.1-0.3-2.7-1
			c-0.5-0.7-0.8-1.6-0.8-2.7V32.9h1.7v11.4c0,0.2,0,0.4,0.1,0.7s0.1,0.5,0.3,0.7c0.1,0.2,0.3,0.4,0.5,0.5c0.2,0.1,0.5,0.2,0.9,0.2
			s0.7-0.1,0.9-0.2s0.4-0.3,0.5-0.5c0.1-0.2,0.2-0.5,0.3-0.8c0.1-0.3,0.1-0.6,0.1-0.9V32.9H91.6z"/>
	</g>
	<g>
		<defs>
			<rect id="SVGID_30_" width="110.1" height="48"/>
		</defs>
		<clipPath id="SVGID_31_">
			<use xlink:href="#SVGID_30_"  style="overflow:visible;"/>
		</clipPath>
		<path class="st18" d="M97.6,32.7c1.2,0,2,0.3,2.5,1c0.5,0.6,0.8,1.5,0.8,2.5l-1.7,0.3c0-0.7-0.1-1.2-0.4-1.6
			c-0.2-0.4-0.7-0.6-1.3-0.6c-0.4,0-0.6,0.1-0.8,0.2c-0.2,0.1-0.4,0.4-0.5,0.6s-0.2,0.5-0.2,0.8c0,0.3-0.1,0.6-0.1,0.8v7.6
			c0,0.2,0,0.4,0.1,0.7s0.1,0.5,0.2,0.7c0.1,0.2,0.3,0.4,0.5,0.5s0.5,0.2,0.8,0.2c0.6,0,1-0.2,1.2-0.5c0.3-0.4,0.4-0.9,0.4-1.6
			l1.7,0.3c0,1.1-0.3,1.9-0.9,2.5c-0.5,0.6-1.4,0.9-2.5,0.9c-1.1,0-2-0.3-2.5-1c-0.6-0.6-0.8-1.5-0.8-2.7V37c0-0.5,0.1-1,0.1-1.6
			c0.1-0.5,0.3-1,0.5-1.3c0.2-0.4,0.6-0.7,1-1C96.3,32.9,96.9,32.7,97.6,32.7"/>
	</g>
	<g>
		<defs>
			<rect id="SVGID_32_" width="110.1" height="48"/>
		</defs>
		<clipPath id="SVGID_33_">
			<use xlink:href="#SVGID_32_"  style="overflow:visible;"/>
		</clipPath>
		<polygon class="st19" points="108.4,47.9 108.4,40.9 104.9,40.9 104.9,47.9 103.2,47.9 103.2,32.9 104.9,32.9 104.9,39.4 
			108.4,39.4 108.4,32.9 110.1,32.9 110.1,47.9 		"/>
	</g>
</g>
</svg>
