<?xml version="1.0" encoding="utf-8"?>
<!-- Generator: Adobe Illustrator 19.2.0, SVG Export Plug-In . SVG Version: 6.00 Build 0)  -->
<svg version="1.1" id="Layer_1" xmlns="http://www.w3.org/2000/svg" xmlns:xlink="http://www.w3.org/1999/xlink" x="0px" y="0px"
	 width="465px" height="480px" viewBox="0 0 465 480" style="enable-background:new 0 0 465 480;" xml:space="preserve">
<style type="text/css">
	.st0{fill:url(#SVGID_1_);}
	.st1{opacity:0.5;fill:none;stroke:#0071BC;stroke-miterlimit:10;}
	.st2{fill:#003A6F;}
	.st3{fill:#007ABF;}
	.st4{opacity:0.4;}
	.st5{opacity:0.1;}
	.st6{opacity:0.5;fill:#0071BC;}
	.st7{fill:url(#SVGID_2_);}
	.st8{fill:none;stroke:#FFFFFF;stroke-miterlimit:10;}
	.st9{fill:url(#SVGID_3_);}
	.st10{fill:#FFFFFF;}
	.st11{stroke:#FFFFFF;stroke-miterlimit:10;}
	.st12{fill:url(#SVGID_4_);}
	.st13{fill:#1E1E1E;stroke:#FFFFFF;stroke-miterlimit:10;}
	.st14{fill:url(#SVGID_5_);}
	.st15{fill:none;stroke:#003A6F;stroke-miterlimit:10;}
	.st16{opacity:0.5;fill:none;stroke:url(#SVGID_6_);stroke-miterlimit:10;}
	.st17{fill:url(#SVGID_7_);}
	.st18{fill:url(#SVGID_8_);}
	.st19{fill:url(#SVGID_9_);}
	.st20{fill:url(#SVGID_10_);}
</style>
<linearGradient id="SVGID_1_" gradientUnits="userSpaceOnUse" x1="158.6946" y1="352.6059" x2="231.2343" y2="273.2664" gradientTransform="matrix(0.7071 0.7071 -0.6465 0.6465 172.2716 -202.4179)">
	<stop  offset="0" style="stop-color:#003A6F"/>
	<stop  offset="0.997" style="stop-color:#007ABF"/>
</linearGradient>
<polygon class="st0" points="58.3,158 58.3,134 141.8,117.5 158.8,134.5 "/>
<circle class="st1" cx="227.5" cy="240" r="204"/>
<circle class="st1" cx="207.2" cy="239.8" r="159.8"/>
<g>
	<g>
		<path class="st2" d="M164,36h176c8.8,0,16,7.2,16,16v380c0,8.8-7.2,16-16,16H164c-8.8,0-16-7.2-16-16V52C148,43.2,155.2,36,164,36
			z"/>
	</g>
	<g>
		<path class="st3" d="M111,36h176c8.8,0,16,7.2,16,16v380c0,8.8-7.2,16-16,16H111c-8.8,0-16-7.2-16-16V52C95,43.2,102.2,36,111,36z
			"/>
	</g>
	<g class="st4">
		<path class="st2" d="M105,383.5c-0.8,0-1.5-0.7-1.5-1.5V90c0-0.8,0.7-1.5,1.5-1.5h188c0.8,0,1.5,0.7,1.5,1.5v292
			c0,0.8-0.7,1.5-1.5,1.5H105z"/>
		<g>
			<path class="st2" d="M293,89c0.6,0,1,0.4,1,1v292c0,0.6-0.4,1-1,1H105c-0.6,0-1-0.4-1-1V90c0-0.6,0.4-1,1-1H293 M293,88H105
				c-1.1,0-2,0.9-2,2v292c0,1.1,0.9,2,2,2h188c1.1,0,2-0.9,2-2V90C295,88.9,294.1,88,293,88L293,88z"/>
		</g>
	</g>
	<g class="st5">
		<path d="M303,432c0,8.8-7.2,16-16,16H111c-8.8,0-16-7.2-16-16V52c0-8.8,7.2-16,16-16"/>
	</g>
</g>
<circle class="st6" cx="311" cy="328" r="120"/>
<linearGradient id="SVGID_2_" gradientUnits="userSpaceOnUse" x1="202.5" y1="328" x2="419.5" y2="328">
	<stop  offset="0" style="stop-color:#003A6F"/>
	<stop  offset="0.997" style="stop-color:#007ABF"/>
</linearGradient>
<path class="st7" d="M311,219.5c-59.9,0-108.5,48.6-108.5,108.5c0,59.9,48.6,108.5,108.5,108.5S419.5,387.9,419.5,328
	C419.5,268.1,370.9,219.5,311,219.5z M311,424c-53,0-96-43-96-96s43-96,96-96s96,43,96,96S364,424,311,424z"/>
<circle class="st8" cx="311" cy="328" r="96"/>
<linearGradient id="SVGID_3_" gradientUnits="userSpaceOnUse" x1="311" y1="208" x2="311" y2="148">
	<stop  offset="0" style="stop-color:#003A6F"/>
	<stop  offset="0.997" style="stop-color:#007ABF"/>
</linearGradient>
<path class="st9" d="M339,176c0-15.5-12.5-28-28-28s-28,12.5-28,28c0,12.7,8.4,23.4,20,26.8v5.2h16v-5.2
	C330.6,199.4,339,188.7,339,176z M311,196c-11,0-20-9-20-20c0-11,9-20,20-20s20,9,20,20C331,187,322,196,311,196z"/>
<circle class="st10" cx="311.3" cy="328" r="76"/>
<circle class="st11" cx="311" cy="328" r="12"/>
<path class="st11" d="M315,244h-8v-12c0-2.2,1.8-4,4-4l0,0c2.2,0,4,1.8,4,4V244z"/>
<linearGradient id="SVGID_4_" gradientUnits="userSpaceOnUse" x1="311" y1="276" x2="311" y2="324">
	<stop  offset="0" style="stop-color:#333333"/>
	<stop  offset="1" style="stop-color:#000000"/>
</linearGradient>
<polygon class="st12" points="315,324 307,324 307,280 311,276 315,280 "/>
<path class="st11" d="M311,428L311,428c-2.2,0-4-1.8-4-4v-12h8v12C315,426.2,313.2,428,311,428z"/>
<path class="st11" d="M395,332v-8h12c2.2,0,4,1.8,4,4l0,0c0,2.2-1.8,4-4,4H395z"/>
<path class="st11" d="M211,328L211,328c0-2.2,1.8-4,4-4h12v8h-12C212.8,332,211,330.2,211,328z"/>
<path class="st13" d="M373.2,271.4l-5.7-5.7l8.5-8.5c1.6-1.6,4.1-1.6,5.7,0v0c1.6,1.6,1.6,4.1,0,5.7L373.2,271.4z"/>
<path class="st11" d="M240.3,398.7L240.3,398.7c-1.6-1.6-1.6-4.1,0-5.7l8.5-8.5l5.7,5.7l-8.5,8.5
	C244.4,400.3,241.9,400.3,240.3,398.7z"/>
<path class="st11" d="M367.7,390.3l5.7-5.7l8.5,8.5c1.6,1.6,1.6,4.1,0,5.7l0,0c-1.6,1.6-4.1,1.6-5.7,0L367.7,390.3z"/>
<path class="st11" d="M240.3,257.3L240.3,257.3c1.6-1.6,4.1-1.6,5.7,0l8.5,8.5l-5.7,5.7l-8.5-8.5
	C238.7,261.4,238.7,258.9,240.3,257.3z"/>
<linearGradient id="SVGID_5_" gradientUnits="userSpaceOnUse" x1="327.9083" y1="318.9392" x2="373.9083" y2="364.9392" gradientTransform="matrix(0.9558 0.2941 -0.2941 0.9558 112.2028 -90.1901)">
	<stop  offset="0" style="stop-color:#E93A00"/>
	<stop  offset="1" style="stop-color:#E33500"/>
</linearGradient>
<polygon class="st14" points="305.7,331.3 308.1,323.7 388.4,348.4 391,353.4 386,356 "/>
<path class="st15" d="M239,64h-64c-3.1,0-4-0.9-4-2v0c0-1.1,0.9-2,2-2h64c1.1,0,2,0.9,2,2v0C239,63.1,238.1,64,239,64z"/>
<circle class="st15" cx="165" cy="62" r="2"/>
<g class="st4">
	<circle class="st2" cx="199" cy="416" r="20"/>
</g>
<linearGradient id="SVGID_6_" gradientUnits="userSpaceOnUse" x1="183" y1="352.5" x2="183" y2="127.5">
	<stop  offset="0" style="stop-color:#007ABF"/>
	<stop  offset="1" style="stop-color:#FFFFFF"/>
</linearGradient>
<path class="st16" d="M295,240c0,61.9-50.1,112-112,112S71,301.9,71,240s50.1-112,112-112"/>
<linearGradient id="SVGID_7_" gradientUnits="userSpaceOnUse" x1="301.4645" y1="208.5355" x2="323.4645" y2="186.5355" gradientTransform="matrix(0.7071 0.7071 -0.7071 0.7071 324.4853 -127.3768)">
	<stop  offset="0" style="stop-color:#003A6F"/>
	<stop  offset="0.997" style="stop-color:#007ABF"/>
</linearGradient>
<polygon class="st17" points="398.7,217.7 393,223.3 398.7,229 390.2,237.5 401.5,248.8 410,240.3 415.7,246 421.3,240.3 "/>
<linearGradient id="SVGID_8_" gradientUnits="userSpaceOnUse" x1="402.0175" y1="71.5105" x2="329.3379" y2="151.003" gradientTransform="matrix(0.7071 0.7071 -0.6465 0.6465 172.2716 -202.4179)">
	<stop  offset="0" style="stop-color:#003A6F"/>
	<stop  offset="0.997" style="stop-color:#007ABF"/>
</linearGradient>
<polygon class="st18" points="327.3,176.7 310.3,159.7 390.5,79.5 407.5,96.5 "/>
<linearGradient id="SVGID_9_" gradientUnits="userSpaceOnUse" x1="307.6584" y1="130.9007" x2="380.1982" y2="51.5612" gradientTransform="matrix(0.7071 0.7071 -0.6465 0.6465 172.2716 -202.4179)">
	<stop  offset="0" style="stop-color:#003A6F"/>
	<stop  offset="0.997" style="stop-color:#007ABF"/>
</linearGradient>
<polygon class="st19" points="307,120 307,96 390.5,79.5 407.5,96.5 "/>
<linearGradient id="SVGID_10_" gradientUnits="userSpaceOnUse" x1="158" y1="111" x2="43.3333" y2="111">
	<stop  offset="0" style="stop-color:#003A6F"/>
	<stop  offset="0.9988" style="stop-color:#007ABF"/>
</linearGradient>
<polygon class="st20" points="58.3,158 43.3,141 141,64 158,81 "/>
</svg>
