<?xml version="1.0" encoding="utf-8"?>
<!-- Generator: Adobe Illustrator 19.2.0, SVG Export Plug-In . SVG Version: 6.00 Build 0)  -->
<svg version="1.1" id="Layer_1" xmlns="http://www.w3.org/2000/svg" xmlns:xlink="http://www.w3.org/1999/xlink" x="0px" y="0px"
	 width="385.6px" height="144px" viewBox="0 0 385.6 144" style="enable-background:new 0 0 385.6 144;" xml:space="preserve">
<style type="text/css">
	.st0{fill:#009EE2;}
	.st1{fill:#E73E4B;}
	.st2{fill:#1D1D1B;}
	.st3{fill:#AFB6BC;}
</style>
<g>
	<path class="st0" d="M178.8,136.9c0,0.4-0.1,0.6-0.3,0.8c-0.2,0.2-0.5,0.2-0.9,0.2h-0.7V136h0.4c0.4,0,0.7,0,1,0.1
		C178.7,136.3,178.8,136.5,178.8,136.9 M180,137.9c0.3-0.2,0.5-0.6,0.5-1.2c0-0.7-0.3-1.2-0.9-1.5c-0.3-0.2-0.8-0.3-1.3-0.3
		c-0.1,0-0.5,0-1.3,0c-0.8,0-1.4,0-1.8,0v6.4h1.7V139h0.4l0.4,0c0.3,0,0.4,0,0.6,0.1c0.2,0.1,0.4,0.2,0.5,0.5
		c0.1,0.1,0.1,0.4,0.1,0.8c0,0.4,0,0.7,0.1,0.9h1.6l-0.1-0.2c0-0.1,0-0.1,0-0.2c0-0.1,0-0.1,0-0.2v-0.6c0-0.7-0.2-1.1-0.6-1.4
		c-0.2-0.2-0.5-0.3-0.9-0.4C179.4,138.3,179.7,138.2,180,137.9"/>
	<path class="st0" d="M182.6,138.1c0,1.3-0.5,2.5-1.4,3.4c-0.9,0.9-2.1,1.4-3.4,1.4c-1.3,0-2.4-0.5-3.4-1.4
		c-0.9-0.9-1.4-2.1-1.4-3.4c0-1.3,0.5-2.4,1.4-3.4c0.9-1,2.1-1.4,3.4-1.4c1.3,0,2.4,0.5,3.4,1.4
		C182.1,135.7,182.6,136.8,182.6,138.1 M183.6,138.1c0-1.6-0.6-3-1.7-4.1c-1.1-1.1-2.5-1.7-4.1-1.7c-1.5,0-2.9,0.5-4,1.6
		c-1.2,1.1-1.8,2.5-1.8,4.2c0,1.6,0.6,3,1.7,4.1c1.1,1.1,2.5,1.7,4.1,1.7c1.6,0,2.9-0.5,4.1-1.6C183,141.1,183.6,139.7,183.6,138.1"
		/>
	<path class="st1" d="M18.1,51.6c10,0,18.1-8.1,18.1-18.1c0-10-8.1-18.1-18.1-18.1C8.1,15.5,0,23.6,0,33.6
		C0,43.5,8.1,51.6,18.1,51.6"/>
	<path class="st1" d="M138,45.5c10,0,18.1-8.1,18.1-18.1c0-10-8.1-18.1-18.1-18.1c-10,0-18.1,8.1-18.1,18.1
		C119.9,37.4,128,45.5,138,45.5"/>
	<path class="st0" d="M73.6,36.2c10,0,18.1-8.1,18.1-18.1C91.7,8.1,83.6,0,73.6,0c-10,0-18.1,8.1-18.1,18.1
		C55.5,28.1,63.6,36.2,73.6,36.2"/>
	<path class="st2" d="M355.6,143.2h5.7v-26.9h9.8v-5h-25.2v5h9.8V143.2z M342.9,113.9c-2.4-2.3-6.1-3.4-9.3-3.4
		c-5.8,0-11.7,2.9-11.7,9.4c0,5.9,4.2,7.8,8.1,9c4,1.3,7.3,2.2,7.3,5.5c0,3.4-3.1,4.7-5.8,4.7c-2.5,0-5.4-1.4-7-3.5l-4.1,3.8
		c2.5,3,6.8,4.5,10.9,4.5c6.3,0,11.6-3.3,11.6-10.2c0-6.3-5.2-8.1-9.3-9.3c-3.6-1.1-6.1-2-6.1-4.9c0-3.1,3-4.4,5.6-4.4
		c2.3,0,4.6,1.2,5.9,2.7L342.9,113.9z M316.7,111.3h-5.7v19.9c0,3.7-1.7,7.7-7.2,7.7c-5.4,0-7.2-4-7.2-7.7v-19.9h-5.7v20.2
		c0,7.7,5.5,12.5,12.8,12.5c7.3,0,12.8-4.8,12.8-12.5V111.3z M269,125v-9h5.1c2.9,0,6.3,0.9,6.3,4.3c0,3.9-3.6,4.6-6.8,4.6H269z
		 M263.4,143.2h5.7v-13.5h4.1l7.4,13.5h6.8l-8.5-14.1c4.5-1,7.3-4,7.3-8.6c0-6.8-5.8-9.1-11.7-9.1h-11.1V143.2z M244.4,143.2h5.7
		v-26.9h9.8v-5h-25.2v5h9.8V143.2z"/>
	<path class="st2" d="M363.7,95.5h5.7V68.5h9.8v-5h-25.2v5h9.8V95.5z M334.3,77.3v-9h5.1c2.9,0,6.3,0.9,6.3,4.3
		c0,3.9-3.6,4.6-6.8,4.6H334.3z M328.6,95.5h5.7V82h4.1l7.4,13.5h6.8l-8.5-14.1c4.5-1,7.3-4,7.3-8.6c0-6.8-5.8-9.1-11.7-9.1h-11.1
		V95.5z M295.2,79.4c0-6.6,4.4-11.7,10.9-11.7c6.6,0,11,5.1,11,11.7c0,6.8-4.5,11.7-11,11.7C299.7,91.2,295.2,86.2,295.2,79.4
		 M289.1,79.4c0,9.9,7.2,16.8,17.1,16.8c9.9,0,17.2-6.9,17.2-16.8c0-10.2-7.2-16.7-17.2-16.7C296.3,62.8,289.1,69.2,289.1,79.4
		 M269.2,77.5v-9.1h4.1c3.5,0,6.9,0.7,6.9,4.5c0,3.8-3.4,4.7-7.1,4.7H269.2z M263.5,95.5h5.7V82.3h4.4c6.8,0,12.4-2.4,12.4-9.5
		c0-6.7-4.7-9.2-12-9.2h-10.4V95.5z M257.9,66.2c-2.4-2.3-6.1-3.4-9.3-3.4c-5.8,0-11.7,2.9-11.7,9.4c0,5.9,4.2,7.8,8.1,9
		c4,1.3,7.3,2.2,7.3,5.5c0,3.4-3.1,4.7-5.8,4.7c-2.5,0-5.4-1.4-7-3.5l-4.1,3.8c2.5,3,6.8,4.5,10.9,4.5c6.3,0,11.6-3.3,11.6-10.2
		c0-6.3-5.2-8.1-9.3-9.3c-3.6-1.1-6.1-2-6.1-4.9c0-3.1,3-4.4,5.6-4.4c2.3,0,4.6,1.2,5.9,2.7L257.9,66.2z"/>
	<path class="st2" d="M359.4,47.7h5.7V33.6h14.9v14.1h5.7V15.9h-5.7v12.9H365V15.9h-5.7V47.7z M340.4,47.7h5.7V20.8h9.8v-5h-25.2v5
		h9.8V47.7z M327.3,15.9h-5.7v19.9c0,3.7-1.7,7.7-7.2,7.7c-5.4,0-7.2-4-7.2-7.7V15.9h-5.7V36c0,7.7,5.5,12.5,12.8,12.5
		s12.8-4.8,12.8-12.5V15.9z M268.5,31.7c0-6.6,4.4-11.7,10.9-11.7c6.6,0,11,5.1,11,11.7c0,6.8-4.5,11.7-11,11.7
		C273,43.5,268.5,38.5,268.5,31.7 M262.4,31.7c0,9.9,7.2,16.8,17.1,16.8c9.9,0,17.2-6.9,17.2-16.8c0-10.2-7.2-16.7-17.2-16.7
		C269.6,15.1,262.4,21.5,262.4,31.7 M245.7,47.7h5.7V33.9l12-18.1h-6.6l-8.1,13.4l-8-13.4h-6.9l12,18.1V47.7z"/>
	<rect x="208.8" y="15.9" class="st3" width="3.6" height="127.3"/>
	<path class="st0" d="M183.7,56.4c0-0.1,0-0.1-0.1-0.1L65.3,38.8l0,0c-0.1,0-0.2,0.1-0.1,0.2c9.2,6.6,16.5,15.8,20.8,26.5
		c0,0.1,0.1,0.1,0.1,0.1c2.5-0.5,5.1-0.7,7.7-0.7c22.7,0,41.1,18.4,41.1,41.1c0,15.5-8.6,29-21.3,36c-0.1,0.1-0.1,0.2,0,0.2
		c3.3,0.9,6.7,1.4,10.3,1.4c6.3,0,12.3-1.6,17.5-4.3c0.5-0.2,0.9-0.5,1.3-0.7c0.1-0.1,0.2-0.1,0.3-0.2c11.1-6.6,18.5-18.6,18.5-32.4
		c0-7.8-2.4-15-6.4-21c-0.1-0.1,0-0.2,0.1-0.2c9.3,1.3,25.8,3.7,28.3,4c0.1,0,0.1,0,0.1-0.1V56.4z"/>
	<path class="st1" d="M93.9,68.2c-2.3,0-4.5,0.2-6.6,0.6c0,0,0,0,0,0c0.2,0.7,0.5,1.4,0.7,2.2c0,0,0,0.1,0,0.1
		c0.6,2,1.1,4.1,1.4,6.3c0,0.2,0.1,0.4,0.1,0.6c0.1,0.5,0.1,1,0.2,1.5c0.1,0.4,0.1,0.9,0.2,1.3c0,0.4,0.1,0.8,0.1,1.3
		c0.1,0.6,0.1,1.1,0.1,1.7c0,0.3,0,0.7,0.1,1c0,0.9,0.1,1.8,0.1,2.8c0,1.2,0,2.3-0.1,3.4c0,0.3,0,0.6-0.1,0.9
		c-0.1,0.9-0.1,1.7-0.2,2.6c0,0.3-0.1,0.5-0.1,0.8c-0.1,0.9-0.3,1.8-0.4,2.8c0,0.2-0.1,0.4-0.1,0.5c-0.2,1.1-0.4,2.2-0.7,3.3
		c0,0,0,0,0,0c9.2,1.7,16.1,9.8,16.1,19.4c0,10.9-8.9,19.8-19.8,19.8c-2.2,0-4.4-0.4-6.4-1.1l0,0c0,0,0,0,0,0c0,0-0.1,0-0.1,0.1
		c0,0,0,0.1,0,0.1l0,0c0,0,0,0,0,0l0,0c4.7,2.1,10,3.3,15.5,3.3c20.8,0,37.7-16.9,37.7-37.7C131.5,85.1,114.7,68.2,93.9,68.2z"/>
	<path class="st0" d="M86.9,87c-0.2-17.8-8.6-33.6-21.6-43.7c-0.1-0.1-0.3,0.1-0.2,0.2c3,3.3,4.8,7.6,4.8,12.4
		c0,10.2-8.3,18.5-18.4,18.5c-10.2,0-18.4-8.2-18.5-18.4c0,0,0-0.1-0.1-0.1H4.2c0,0-0.1,0-0.1,0.1c0,7.9,2,15.3,5.4,21.8
		c0.6,1.1,1.1,2.1,1.8,3.1c8.3,13.4,23.2,22.3,40.1,22.3c0.2,0,0.4,0,0.5,0c0.1,0,0.1,0,0.1,0.1c0.6,2.4,0.9,4.9,0.9,7.4
		c0,17.4-14.1,31.5-31.5,31.5c-2.3,0-4.5-0.3-6.7-0.7l0,0c0,0,0,0-0.1,0c0,0,0,0-0.1,0.1c0,0,0,0.1,0.1,0.1c5,1.5,10.4,2.3,15.9,2.3
		c31,0,56.2-25.2,56.2-56.3C86.9,87.4,86.9,87.2,86.9,87z"/>
</g>
</svg>
